<?xml version="1.0" encoding="UTF-8" standalone="no"?> <!-- Created with Vectornator for iOS (http://vectornator.io/) --><!DOCTYPE svg PUBLIC "-//W3C//DTD SVG 1.1//EN" "http://www.w3.org/Graphics/SVG/1.1/DTD/svg11.dtd">
<svg style="fill-rule:evenodd;clip-rule:evenodd;stroke-linecap:round;stroke-linejoin:round;" xmlns:vectornator="http://vectornator.io" xmlns:xlink="http://www.w3.org/1999/xlink" xmlns="http://www.w3.org/2000/svg" xml:space="preserve" version="1.1" viewBox="0 0 32 32">
<metadata>
<vectornator:setting key="DynamicGuides" value="1"/>
<vectornator:setting key="Units" value="Points"/>
<vectornator:setting key="GuidesVisible" value="1"/>
<vectornator:setting key="RulersVisible" value="1"/>
<vectornator:setting key="SnapToGuides" value="1"/>
<vectornator:setting key="GridSpacing" value="36"/>
</metadata>
<defs/>
<g id="Untitled" vectornator:layerName="Untitled">
<g opacity="1">
<path d="M15.999+0C7.16244+0-0.00100077+7.16344-0.001+16C-0.000999046+24.8366+7.16244+32+15.999+32C24.8356+32+31.999+24.8366+31.999+16C31.9896+7.16733+24.8317+0.00936934+15.999+0ZM15.999+29.452C8.56924+29.4509+2.54708+23.4271+2.548+15.9973C2.54892+8.56758+8.57258+2.54526+16.0023+2.546C23.4321+2.54674+29.4546+8.57024+29.454+16C29.4452+23.4268+23.4259+29.4448+15.999+29.452Z" opacity="1" fill="#ffffff"/>
<path d="M19.525+12.822L19.525+7.988C19.5162+7.1474+18.8276+6.47312+17.987+6.482L14.659+6.482C13.8188+6.47367+13.1308+7.1478+13.122+7.988L13.122+12.822L8.183+12.822C7.34318+12.8142+6.65579+13.4882+6.647+14.328L6.647+17.655C6.65579+18.4952+7.34379+19.1693+8.184+19.161L13.121+19.161L13.121+23.994C13.1298+24.8342+13.8178+25.5083+14.658+25.5L17.987+25.5C18.8272+25.5083+19.5152+24.8342+19.524+23.994L19.524+19.161L24.46+19.161C25.3004+19.1693+25.9887+18.4954+25.998+17.655L25.998+14.328C25.9892+13.4874+25.3006+12.8131+24.46+12.822L19.525+12.822Z" opacity="1" fill="#ffffff"/>
</g>
</g>
</svg>
